
<global>
amp_veltrack=0
ampeg_release=0.35
</global>

<group>
group_label=Group_0-42
lpc_hicc1=42
lpc_locc1=0

<region>
hikey=a3
hivel=127
lokey=g#3
lovel=1
lpc=v3ykQM8GPsEpVFVBk8sHwRXlbEAUUSPAJElJQF6sKcDosPk/zElgv7fg5r3NKYs/lYRmv/lSQD54yYk/zuLsvwkVzj9Xhem+CiyTvjiMGj+ir3W/CVWPP8J6Bb/HE2I9
lpc_rms=-38.22
pitch_keycenter=a3
sample=Violin2Solo_tenuto_quarter_PP_A3.opus
</region>

<region>
hikey=a4
hivel=127
lokey=g#4
lovel=1
lpc=qBWHQBftEsHReSdBnJP9wDWttkBMkoLAYjIhQM3FoL8klUY/S9xCvyagYj/+/52+rl4tPfmN6b50hM4/ZuATwAVeEkDqDqG/Am/xPsZYb76U3Nc9KiLPPE4tzDm6T0S9
lpc_rms=-35.61
pitch_keycenter=a4
sample=Violin2Solo_tenuto_quarter_PP_A4.opus
</region>

<region>
hikey=a5
hivel=127
lokey=g#5
lovel=1
lpc=+8KqQMNOwMDblLNAjOSXv5dvpj+3cOK+ir7uP5JPKT+8qni/iQsJQCxkLz/xVem+gxVgP1X4nD+2jSY/1WX7vOOZ+T470gRATHs0v36l0T5hQuY/j2GEPvVsh7+ZgjdA
lpc_rms=-25.66
pitch_keycenter=a5
sample=Violin2Solo_tenuto_quarter_PP_A5.opus
</region>

<region>
hikey=a6
hivel=127
lokey=g#6
lovel=1
lpc=ADttQbyCPsD5/TNBtmSZQEQR4j9zSctA5bXbv/16pr6KNw8/qfI3wOa45D9cPUU/SDVyQFegr8DdVvjAm0s1QM9LPcFU2Hg//oBOwIXyN8ClJJdAmkeXvkJiVkBxsilA
lpc_rms=-23.00
pitch_keycenter=a6
sample=Violin2Solo_tenuto_quarter_PP_A6.opus
</region>

<region>
hikey=b3
hivel=127
lokey=a#3
lovel=1
lpc=bl/PQFLJeMFiZ4lB5g8nwb3sPkCb7Me/Cr89QPSDVcCoMTZAg4bCv91koT5PpyU/TLIXv/IGyr72Uuo/3QoqwEoe3z9l8CQ+3btzvyuvDT8Shfi+OrJCP6scJb/ZRBw+
lpc_rms=-36.05
pitch_keycenter=b3
sample=Violin2Solo_tenuto_quarter_PP_B3.opus
</region>

<region>
hikey=b4
hivel=127
lokey=a#4
lovel=1
lpc=S4+vQNElMcG3GEJBuY8TwdhwxUCGpIzAK7VZQOrr7L9lgK4/2u+/v9unEECHtdi/uksFPyczur0UWmE/YyLdv7GNFkDDHLW/O/k/P17vcj4oqZu+qk18vxdHnT8LoCy/
lpc_rms=-27.73
pitch_keycenter=b4
sample=Violin2Solo_tenuto_quarter_PP_B4.opus
</region>

<region>
hikey=b5
hivel=127
lokey=a#5
lovel=1
lpc=53A+Qd++4cBcnTRBGhFlwBbcCUH2lhjAz7cBQRQFCr/l04pAh20vQONITkBWrA5AX1+MQN7J2D96Cl1A+NVEQKq+Y0DmdRU/iWPdQHpVfL/FDtNATOpJvyzM8kCm0uq/
lpc_rms=-20.17
pitch_keycenter=b5
sample=Violin2Solo_tenuto_quarter_PP_B5.opus
</region>

<region>
hikey=b6
hivel=127
lokey=a#6
lovel=1
lpc=98XFQXa4w8Ai9V9BBje0QIPu/UBHXEk/hmmdQV2SRMBYy0BBegbvQAwg20COAxNAIxe+waNRpEAjN0fBN4a3wGTC8cD+0BO92GiYwV4vNkDuITLBHaLgwH5M38Cm85y/
lpc_rms=-20.77
pitch_keycenter=b6
sample=Violin2Solo_tenuto_quarter_PP_B6.opus
</region>

<region>
hikey=c#4
hivel=127
lokey=c4
lovel=1
lpc=c8kqQa1mx8GmcMVB/7Q8wS1HFUDahmjAw1W/QG+clcAgECJAIsR7v/iHKL9/+fc/FN4BwOdI5L6VXa1AKpkDwZG60UA6b9a/BtrJvgpt0L5fgJ0/gfQWvwQD5r15lTG9
lpc_rms=-34.60
pitch_keycenter=c#4
sample=Violin2Solo_tenuto_quarter_PP_C#4.opus
</region>

<region>
hikey=c#5
hivel=127
lokey=c5
lovel=1
lpc=zXrCQEPQSMFecE9Be7EYwfGCzkD10KDAWZCLQCI/UsD3KhtA5+wDwPLYDEA/BijAAcXkPwccLL/dRl0/0nUWv+rUhj7Um98+ZQ8Pvzgecr0FKI0/UgPQvwSInT/avhG8
lpc_rms=-28.02
pitch_keycenter=c#5
sample=Violin2Solo_tenuto_quarter_PP_C#5.opus
</region>

<region>
hikey=c#6
hivel=127
lokey=c6
lovel=1
lpc=uxIWQU1xq8BjDgxB/F06wEC2ukDbHmy/7xGEQKQaxT7T50FAogWPPywUOUB7DUg/waZSQPXcQz8+5DdAskjFP+HiJ0CGx4I/clBeQLkgwr6DdrVAgnzBwBAh/j8bG32/
lpc_rms=-22.69
pitch_keycenter=c#6
sample=Violin2Solo_tenuto_quarter_PP_C#6.opus
</region>

<region>
hikey=E7
hivel=127
lokey=c7
lovel=1
lpc=C6r0QYTE6cB7lWdBYhY8QELNI0FwqNdAq9MPQbbqEEG8R69A2UGOQYBDeMFU+9LBHRlPQRu8P8GkpgBAs+MZwRygd78d9BnBCY59v0mEFsHhsrLA/+cPQdVkjECafIrA
lpc_rms=-18.33
pitch_keycenter=C#7
sample=Violin2Solo_tenuto_quarter_PP_C#7.opus
</region>

<region>
hikey=d#4
hivel=127
lokey=d4
lovel=1
lpc=YpAKQddunMFzjZpBzlM2wbq1oEBnlYfAB/eMQGUzPcCotBJA6Z67v6tisD4hZks/C6Wfv7aZeT8UDgI/Qqfbv73T7T9X756/jQUmP9ZCV7/GgwQ/PDM0PhjLDL/F0ps+
lpc_rms=-34.50
pitch_keycenter=d#4
sample=Violin2Solo_tenuto_quarter_PP_D#4.opus
</region>

<region>
hikey=d#5
hivel=127
lokey=d5
lovel=1
lpc=gU9oQBt92cB/CPBALhSlwMuxUkDBqQTAjeXaP8Xym78mlno/2kVGvzap0D50+Ey+GY+WPr18nr54lVw/1T6sv9z5nT+v4wC+OqTFvpKsgz/sZT+/UOF2P8PWT78LBj8/
lpc_rms=-30.87
pitch_keycenter=d#5
sample=Violin2Solo_tenuto_quarter_PP_D#5.opus
</region>

<region>
hikey=d#6
hivel=127
lokey=d6
lovel=1
lpc=1zgUQbazw8BIdyZBCe9LwB10pEDhl6Q82KSqP2XoQT8hETw/94O0PyqRCz5bWfQ/OWIGPY276z9FF0w+qovSP+nZPz+4hFI/h6nBPy8+/MBuzrJA7pTmwBcq+T/jkyvA
lpc_rms=-22.67
pitch_keycenter=d#6
sample=Violin2Solo_tenuto_quarter_PP_D#6.opus
</region>

<region>
hikey=f4
hivel=127
lokey=e4
lovel=1
lpc=WiahQBv6K8Heyi5B15/cwOwid0BkCRbAtKvHPzbNob+QMMY/thM0v0Nxej6efzK8YGUQvmyXmL46GOU/M7klwIk3DUBBQLu/adEVP+b5iL2ABDQ+5xiGPX89tr7D3PI9
lpc_rms=-37.54
pitch_keycenter=f4
sample=Violin2Solo_tenuto_quarter_PP_F4.opus
</region>

<region>
hikey=f5
hivel=127
lokey=e5
lovel=1
lpc=IaNoQJ5n38DYSQNBut/AwAWde0DXp7y/RHZMPw+tUL+dSA5AKmIkwJShJEDwQrG/w3UMPy9QSb4iXX8/rzG+v+to7z9g/8q/uiibP6p43b4wMy8+vE//vtlHJD9GuKW+
lpc_rms=-29.72
pitch_keycenter=f5
sample=Violin2Solo_tenuto_quarter_PP_F5.opus
</region>

<region>
hikey=f6
hivel=127
lokey=e6
lovel=1
lpc=czsPQcNxHMC80/FA8vBNv6YIk0Db5tY9fZoIvq7jAL6DK9s+yPdOvoGOoD5Yywy+KPiaPtnuBL4Bhpo+G4ewvtlEwT4OSwrBdQLqP77r0MAsshG+/yVbwCOAPb/kER8/
lpc_rms=-28.29
pitch_keycenter=f6
sample=Violin2Solo_tenuto_quarter_PP_F6.opus
</region>

<region>
hivel=127
key=g3
lovel=1
lpc=TJYTQbs1s8GhEspBOYqBwSam3kD8FZDA0bmdQHVSc8BouiNA1dmqv7kNKr/h8BlAOEIMwOrx2T7c2zFAj7KtwDuzskCJUVXAHWKDP42J3z67NqK/fRW6P1Htrb+R9Ds+
lpc_rms=-38.17
sample=Violin2Solo_tenuto_quarter_PP_G3.opus
</region>

<region>
hikey=g4
hivel=127
lokey=f#4
lovel=1
lpc=QtWoQKoAOcEClD5BkeT1wLY5hkC8YiDACXnjP16yz7/r48A/DaV8v63Mzb7Ck5E/iAWrv6Bubz+ig8E+ZHYQwGc4JUAizly/KaIXvwB+iz9l/UO+Dz3Rvoomrb0i9Nw+
lpc_rms=-34.48
pitch_keycenter=g4
sample=Violin2Solo_tenuto_quarter_PP_G4.opus
</region>

<region>
hikey=g5
hivel=127
lokey=f#5
lovel=1
lpc=ERI9QETRkMASR5BA1T8nwD0esD9+dba+jXYCP05a3z5Q95C/yeGOP7wihr5lHZE+XDSuPfpZmD4RGRK+IL+GPhSxTr5zAzY/7lYZvSodwT0ysNI+Qr3ovrk2ij6TEMs+
lpc_rms=-26.17
pitch_keycenter=g5
sample=Violin2Solo_tenuto_quarter_PP_G5.opus
</region>

<region>
hikey=g6
hivel=127
lokey=f#6
lovel=1
lpc=W1h0Qf9h18DLfOVA9xJmQN5pGz/+Fq5A0R0JQBbZLr994mU/Y/ELQJ1cij+f96Q/iH4cQLfrUr6rWppA1GtNwQs/NkD5cAC+hQCpwOYw4j+sGTXAzkMYwPjEEUCRnWQ/
lpc_rms=-22.42
pitch_keycenter=g6
sample=Violin2Solo_tenuto_quarter_PP_G6.opus
</region>
</group>

<group>
group_label=Group_43-84
lpc_hicc1=84
lpc_locc1=43

<region>
hikey=a3
hivel=127
lokey=g#3
lovel=1
lpc=ctmFQDLvEcGvBCpB5DP3wP7tj0C2/R/A/enLPyM4Sb8PBSQ/fMa8vvFjzT59qKS+56KKPiwGjb7EQoQ/O3THv7fe0T9MQKO/Bi6eP2RROL/xHJK+T4QvP0+tWr5HSF2+
lpc_rms=-22.78
pitch_keycenter=a3
sample=Violin2Solo_tenuto_quarter_MF_A3.opus
volume=-6.0
</region>

<region>
hikey=a4
hivel=127
lokey=g#4
lovel=1
lpc=HPeEQOz488BWwwtB6DemwGQTRUB95dS/VyHeP2grm76WzrG+o4IPPhWHQz+/Ifm+1lF+vRTGBT9GHus+b3uMv1Z4kT+Bkhg9IW5qvoIZPT5Uajk/6SeHv1zwTz+We1a+
lpc_rms=-24.70
pitch_keycenter=a4
sample=Violin2Solo_tenuto_quarter_MF_A4.opus
volume=-6.0
</region>

<region>
hikey=a5
hivel=127
lokey=g#5
lovel=1
lpc=GC5TQChXW8C4Qn1AexTmv6v5+D+UcQm/rLTLP95kXr9X8L4/wxEWvIogFT8MXZY9QY9/P+qI4L1ESjY/ZKFwPz5rDb9/WbE/tOlivXbLbz8TXe2+agHrP7KXsr/8S/8/
lpc_rms=-16.26
pitch_keycenter=a5
sample=Violin2Solo_tenuto_quarter_MF_A5.opus
volume=-6.0
</region>

<region>
hikey=a6
hivel=127
lokey=g#6
lovel=1
lpc=H2PtQK4WEkCVBrVAEJ9qQO7RakD3knBAw3TEP6xqk78YJAA/CpRMvy7Hcj9EPvK8SBbcPxY+jsCkuYbA4F0xwGsqmcBveTzAOyluwJm/HMBCHXQ/tJjiPrso3z7mtUM/
lpc_rms=-17.83
pitch_keycenter=a6
sample=Violin2Solo_tenuto_quarter_MF_A6.opus
volume=-6.0
</region>

<region>
hikey=b3
hivel=127
lokey=a#3
lovel=1
lpc=POepQBZiQcHwWmVB/5smwR8kykDzzJjADHtrQEkO3L829bg/DorYv9vbkz9ZItk+pB/dvuV2Br8BtO0/O98xwN/fREBcV9+/NI2+Pt3PAz9Tqy+/Y3jTPviE9DvU2IG+
lpc_rms=-21.20
pitch_keycenter=b3
sample=Violin2Solo_tenuto_quarter_MF_B3.opus
volume=-6.0
</region>

<region>
hikey=b4
hivel=127
lokey=a#4
lovel=1
lpc=XF+BQOlP+cB+E/9AfE22wGJbfEAjCg3AgO/KPmIKkj4d5EA/gODBv8AJsT/dPdm+lgdivb9oabxN0SQ/0m+lv8I6tj/5wxi/R1bOPmDdiL6EnLQ9fVUXPgbRDb6PbYm+
lpc_rms=-20.80
pitch_keycenter=b4
sample=Violin2Solo_tenuto_quarter_MF_B4.opus
volume=-6.0
</region>

<region>
hikey=b5
hivel=127
lokey=a#5
lovel=1
lpc=dF6xQBUY7r/eqYtACYccP9uRGUASrq8/gc40QB7fED/e1jxATPRKP3w1S0CleJu9TDWNQBvwPL516C9A0dO0PxrvEUBluKw/rOYdQMKyrj/pvBRAwn+lP5SKNECPTAk/
lpc_rms=-12.96
pitch_keycenter=b5
sample=Violin2Solo_tenuto_quarter_MF_B5.opus
volume=-6.0
</region>

<region>
hikey=b6
hivel=127
lokey=a#6
lovel=1
lpc=uLA4QZYGEkBc5r9AxFOaQC53tUB2BqtA2U7MQMGzn0A/87lAgFCqQKADs0BE7ZpAfIcdwcdxPcASS5zA0/OLwNSAnsAwfJnAqSu3wAjtksCI0aLAt02fwHebl8DosZXA
lpc_rms=-17.05
pitch_keycenter=b6
sample=Violin2Solo_tenuto_quarter_MF_B6.opus
volume=-6.0
</region>

<region>
hikey=c#4
hivel=127
lokey=c4
lovel=1
lpc=DK2+QNTGV8F8f2hB/h8RwVhFX0Cq/OS/UnWrP/6Web+Qf88/2ez5v2ohpD5zh8M/qHpNv8ubjL8hQC5AzuEmwKx1Uz9OGoc/kUWxv4BkqT/QKuW/kzMEQHVipL/Aygg/
lpc_rms=-23.07
pitch_keycenter=c#4
sample=Violin2Solo_tenuto_quarter_MF_C#4.opus
volume=-6.0
</region>

<region>
hikey=c#5
hivel=127
lokey=c5
lovel=1
lpc=oxhwQIeo4sAQjNVAqQaIwPTcM0DopynApdHRPwbB6b7fxAU/UegVv8nPfD7bSSW+vVvgPl/w0L6hKBo/QAdwv7AgrT9odza/yelLPpo0376+lYo/wtrTv4OEkj8iKra9
lpc_rms=-19.65
pitch_keycenter=c#5
sample=Violin2Solo_tenuto_quarter_MF_C#5.opus
volume=-6.0
</region>

<region>
hikey=c#6
hivel=127
lokey=c6
lovel=1
lpc=W9DAQBpLHMC5UadA7Vn1PodaVkB2/QNAOWYcQC1l6z90IVFAKtKqPwDTT0BMrqE/yM5nQNTHgD+RPlJAuvPnP3eGOUAzE+o/MVRAQAnPwj+8OG5AMIG2vznyRz+rfFk/
lpc_rms=-13.33
pitch_keycenter=c#6
sample=Violin2Solo_tenuto_quarter_MF_C#6.opus
volume=-6.0
</region>

<region>
hikey=E7
hivel=127
lokey=c7
lovel=1
lpc=YPuYQeCqGb//0YlAiRmZQCuSrkDSKapAN0+hQL5eu0BM1YpAyA8MQXOwfcDG1MfBi03pQOsPTsAJilLA7O6SwH8gd8CEmILAT2COwM02Z8BX4NfAZRN4QN34AEFVTb7A
lpc_rms=-16.14
pitch_keycenter=C#7
sample=Violin2Solo_tenuto_quarter_MF_C#7.opus
volume=-6.0
</region>

<region>
hikey=d#4
hivel=127
lokey=d4
lovel=1
lpc=sKGjQG6+QMEjzWVB93wjwaWCskC1EXbA3cJwQKQ6McCQnZQ//qwzvnKKZz6z25o9sX+HvslVg7+XKDZAC7dTwIg/L0CQOI6/0Qp4vq7oPD+TIZ6/takGQOrhBcAue1A/
lpc_rms=-22.12
pitch_keycenter=d#4
sample=Violin2Solo_tenuto_quarter_MF_D#4.opus
volume=-6.0
</region>

<region>
hikey=d#5
hivel=127
lokey=d5
lovel=1
lpc=IJ1zQE5UtcADmsdAv2ZLwLFjJkCT8GC/h0IPP6STRz8yFaY92J00P3Gxez2ccIM+9CdIPz42BL8TLX8/FO8Rv949Tz+muiW/3dmZP9U8Ir+MTJA/HdmWv0DgwD+cTva+
lpc_rms=-20.05
pitch_keycenter=d#5
sample=Violin2Solo_tenuto_quarter_MF_D#5.opus
volume=-6.0
</region>

<region>
hikey=d#6
hivel=127
lokey=d6
lovel=1
lpc=31u1QIujcL+IRFhA+BaKP/zrH0B/hns/jcHjP34Bwz6KGOY/0aJdPweiwT8Rqjw/bMjOP3XDnz+nH3o/tqamP1Dcqz8GySs/2TnhPweQasCZDxY/k7davzPOKr/8KU2/
lpc_rms=-18.01
pitch_keycenter=d#6
sample=Violin2Solo_tenuto_quarter_MF_D#6.opus
volume=-6.0
</region>

<region>
hikey=f4
hivel=127
lokey=e4
lovel=1
lpc=2kiCQOT7A8FRUhRBU4DIwNXAZECoeTLAqDc6QAK2AMCLtro/bGeUv4KDhz+fLEi/fBaQP+RLpb+kIMw/iUQBwC7KFECcFM+/R+9FP1vShL2H3Sw+A48Qv7JskT7FzYa+
lpc_rms=-23.52
pitch_keycenter=f4
sample=Violin2Solo_tenuto_quarter_MF_F4.opus
volume=-6.0
</region>

<region>
hikey=f5
hivel=127
lokey=e5
lovel=1
lpc=k2Y7QCfijcDYbo1AE5ENwORvez/qDQE920sXP5k3Nb+MdZM/A5Wkvq0J7z1whiI/G1Z9v4CHaj9Rrrg8BmFtvtozqD5gmYo+upDXvtbsOj9KuCG+hfqXvnhtqz3jlhs+
lpc_rms=-22.14
pitch_keycenter=f5
sample=Violin2Solo_tenuto_quarter_MF_F5.opus
volume=-6.0
</region>

<region>
hikey=f6
hivel=127
lokey=e6
lovel=1
lpc=pebKQPwwq78jmmdATKMaPyEIrD+PZ2BArKBTPwFydj8/OYs/J0KqPyXTCj9BrnA/kmj6P5m6hD4+99M/JjJWP8cxYT9dFnbAYLc/P5UWqr+xX6m+mCTKPujkRcCfOuc+
lpc_rms=-17.39
pitch_keycenter=f6
sample=Violin2Solo_tenuto_quarter_MF_F6.opus
volume=-6.0
</region>

<region>
hivel=127
key=g3
lovel=1
lpc=5KKlQC9nOMHuwU5BTfABwdclZ0CGQx3A1G1XQBu4WcA+ty1AAQy8vw+BOj9jBmA9o93nvucCzT5fwlQ/Vur8v73yGkAGVo+/lufVvYVHVz/trZq/SZigP58bCr9gOFC+
lpc_rms=-23.59
sample=Violin2Solo_tenuto_quarter_MF_G3.opus
volume=-6.0
</region>

<region>
hikey=g4
hivel=127
lokey=f#4
lovel=1
lpc=J1x1QCCU48DH5OlAgFWPwErzHUAONcm/WYFdP/0bxb69yEY/Ze2Vv2kHkT91jRu/dqSsPMUCdr4jb4s/bJQFwERVDEB943a/4XWyPsuym71WugA/iWcXv0Yz7z6f9rG+
lpc_rms=-25.95
pitch_keycenter=g4
sample=Violin2Solo_tenuto_quarter_MF_G4.opus
volume=-6.0
</region>

<region>
hikey=g5
hivel=127
lokey=f#5
lovel=1
lpc=WlYSQDJuE8Cv/CBAwr3kvwdU3D8o/5W/IhngPz/cub9ZYJU/aTwSv2zl2D6cDZG9fshcP5m0u76oYbs+VZa4vAg4mr3Qshw/SrApPlmHzT66sI++i6lQP2zvS790n0Q/
lpc_rms=-18.17
pitch_keycenter=g5
sample=Violin2Solo_tenuto_quarter_MF_G5.opus
volume=-6.0
</region>

<region>
hikey=g6
hivel=127
lokey=f#6
lovel=1
lpc=QOnAQPiM8L4SS0lAhiMTQDJHzj/7dldA1l1KQJkYij7wqA1A7QYAQD9cGUC93gJAOzkgQF2jyT8VJExAhl0zwHndHj8MmlU/Dv6Av0BSgD8PlxK/AWiQv6KRgz93LJs/
lpc_rms=-18.63
pitch_keycenter=g6
sample=Violin2Solo_tenuto_quarter_MF_G6.opus
volume=-6.0
</region>
</group>

<group>
group_label=Group_85-127
lpc_hicc1=127
lpc_locc1=85

<region>
hikey=a3
hivel=127
lokey=g#3
lovel=1
lpc=ghGSQClpIcGbM0tBrrkWwQrJrED4uVPAeVpsQB67UsAxbkFAUofwvxj+nz/SBBE/Vj6Mv5mGSj/Z8GU/kPOovyEmhz+0E0e+9fxKPimCkz4DJcy+NCEDP35+d70iDfG8
lpc_rms=-23.71
pitch_keycenter=a3
sample=Violin2Solo_tenuto_quarter_FF_A3.opus
</region>

<region>
hikey=a4
hivel=127
lokey=g#4
lovel=1
lpc=8aaAQKPg7sA7gQFBMiCMwNxaBEAOCDy/slFtP5KOrL54+LI+dkftvsjH+D7XDIo+a4cnv532rD4/kkg/Tzijv6/vjD/f4eu9no+UvsTsLL226l0/m+WXv+2dXT9i0bC+
lpc_rms=-26.22
pitch_keycenter=a4
sample=Violin2Solo_tenuto_quarter_FF_A4.opus
</region>

<region>
hikey=a5
hivel=127
lokey=g#5
lovel=1
lpc=NgVDQHPvMcBEKz9A81LKv9NzBEAQtRS/wRK1PxEkdr9Htus/kIErv5PmnD9sqpi+dnZyP5oLBz2Baxc/U2UXPxlkrr0Hu2g/Vc8HvrfNqz9Psoe/hJnPP1gmIb+es7M/
lpc_rms=-19.35
pitch_keycenter=a5
sample=Violin2Solo_tenuto_quarter_FF_A5.opus
</region>

<region>
hikey=a6
hivel=127
lokey=g#6
lovel=1
lpc=N+zJQPkEhz5zqIJAmehBQBOzFEDb9GBAurgCQH3VmTy9iyNAitiIP5NzBUD0QtU/b65SQMZo978PApq/2UY/PzNIJMBZuZg9j2e6v2H1ib9zl9w/XVPEPQhJkj4F4kY/
lpc_rms=-18.95
pitch_keycenter=a6
sample=Violin2Solo_tenuto_quarter_FF_A6.opus
</region>

<region>
hikey=b3
hivel=127
lokey=a#3
lovel=1
lpc=AhaLQLV1IMH9clNBl8AywcEU7kDuB7HAR2WpQP6ilMCcCUpA+G6Mv1VM/L0hmBs/R6azvsl+476tALg/jqIHwKnLF0DTq8q/6ZNcP6I88r7vLX4/jVHCvy8tpD/3XR2/
lpc_rms=-23.82
pitch_keycenter=b3
sample=Violin2Solo_tenuto_quarter_FF_B3.opus
</region>

<region>
hikey=b4
hivel=127
lokey=a#4
lovel=1
lpc=3q5iQPCbxMD85a9AfvokwGsSrD+PYlW/l6vlPpJ5oD38LDE/s0Svvw7/uD/k3ka/ObUKPxUcNb5/ZQg9gMxOPt1pM71V2DA/Iv2IvzHOtj/phhy/87Yov/CKnD/cVzS/
lpc_rms=-22.36
pitch_keycenter=b4
sample=Violin2Solo_tenuto_quarter_FF_B4.opus
</region>

<region>
hikey=b5
hivel=127
lokey=a#5
lovel=1
lpc=npapQJP7Hr+xe4ZA+2MzP2/gRkBtV8I/viJAQKpelT/2J0ZAkuSwP+ojMUBnyc0/uX9KQJdF5D+0qQ9AbDLHP2UATUAMe5E/TRpKQCZesT+jRCpAYy7xPys5JEAE4+w/
lpc_rms=-17.10
pitch_keycenter=b5
sample=Violin2Solo_tenuto_quarter_FF_B5.opus
</region>

<region>
hikey=b6
hivel=127
lokey=a#6
lovel=1
lpc=ZxG6QMVM4j+fukNAvFIRQMruTkBN5jVAWzdtQOq/FEA06UFAkT0nQEOwQkBKtidATMeKwLmDCcBWWAjAJPH9v4faJsAjTxLA1/FIwDqU/7+mESHA8WoIwMvxGcDm6CbA
lpc_rms=-21.95
pitch_keycenter=b6
sample=Violin2Solo_tenuto_quarter_FF_B6.opus
</region>

<region>
hikey=c#4
hivel=127
lokey=c4
lovel=1
lpc=HKaWQBHoLcGa3klB09gcwVQIt0DbUiTARjyoP0x0qb/I7H4/yi8PvC0mQ7+n2iI/HjvdvuBwmz2dkII/TCMjwDx2h0DOPY7ATppBQOG0dr8eQCy/akCsP6FkN79u3ps9
lpc_rms=-26.46
pitch_keycenter=c#4
sample=Violin2Solo_tenuto_quarter_FF_C#4.opus
</region>

<region>
hikey=c#5
hivel=127
lokey=C5
lovel=1
lpc=+95ZQIqjwsBW9qtAEmtPwEkP5T+mMSW/PbhWv/gPej/t4t0+i7ppv2HHtz7Je9W+UWmLP1nEh79yNEw/143oviAcVD6V9QE/L73vvhOPlj1BAsU9iobCvgtXdD5YPCU+
lpc_rms=-22.64
pitch_keycenter=c#5
sample=Violin2Solo_tenuto_quarter_FF_C#5.opus
</region>

<region>
hikey=c#6
hivel=127
lokey=c6
lovel=1
lpc=BAT0QEMCE8BmJLJA8frPPwe3bkBNHldA0yFAQKSuKUDEppRAq8TDP/XQmEAnVPI/Di+OQP8PEUB6fnBAjhkoQGB1gUC3fAlAhFGKQLXhDEBB2ZpAXkqwvxsDGz9II+I/
lpc_rms=-15.40
pitch_keycenter=c#6
sample=Violin2Solo_tenuto_quarter_FF_C#6.opus
</region>

<region>
hikey=E7
hivel=127
lokey=c7
lovel=1
lpc=82FxQdVLjz8+qKxAPbNNQJa990BxRHxAznvYQJl9gEAZa69AuTcDQaFF3sAAR4DB0FhNQA/disD+jm/AyjXswNz2W8DuBd7Aa5A1wNEm78DAk43AXZd3QLTnAkAnIonA
lpc_rms=-12.67
pitch_keycenter=C#7
sample=Violin2Solo_tenuto_quarter_FF_C#7.opus
</region>

<region>
hikey=d#4
hivel=127
lokey=d4
lovel=1
lpc=ioadQFqwNsEICV5Bxn0fwV44oEBRIznAOdEmQCQq/L9er1Y/RXdhPoRHOL8ElZ4/XFxyvzVxb7/8bFtAplaPwOazgkC2JRzAyraDP+jjmL4lihc+sZM2vTNAmb0WSRe+
lpc_rms=-24.65
pitch_keycenter=d#4
sample=Violin2Solo_tenuto_quarter_FF_D#4.opus
</region>

<region>
hikey=d#5
hivel=127
lokey=d5
lovel=1
lpc=RSyBQFMq1cD95M9A2mgtwFjeqT9bztC+R0fbPo/6lT5eQme9szDtPjxobb7oeoY/44h+v1EXoD7GmUo/S+gJvz4NPj4U/18+L1uUvqH+Vz/gsx+/fr6HPiM0xj6zFrK+
lpc_rms=-20.84
pitch_keycenter=d#5
sample=Violin2Solo_tenuto_quarter_FF_D#5.opus
</region>

<region>
hikey=d#6
hivel=127
lokey=d6
lovel=1
lpc=FdkQQfffhr/iysdAIXnEQPmfx0B2TbBA+jrBQOlDo0DKAMVARfKuQCnirkDoJ71A+qqyQKyYt0AjQLZAMT2nQNFny0DySZ9AJVXBQDrWzL+2JWpAoqsUQD/j6782soe9
lpc_rms=-13.72
pitch_keycenter=d#6
sample=Violin2Solo_tenuto_quarter_FF_D#6.opus
</region>

<region>
hikey=f4
hivel=127
lokey=e4
lovel=1
lpc=qQiQQB6BGcFltD1BK00QwWUUsUDu0UXAvVkGQD2WIL+gQb+9Pz6yPz4Udr8a+hk8eOaHP79TkL9Chas/DCXAv7mc6T9qCpq/HZgbP3SQiL5+YLA+frHNvurPRT4xnae9
lpc_rms=-25.40
pitch_keycenter=f4
sample=Violin2Solo_tenuto_quarter_FF_F4.opus
</region>

<region>
hikey=f5
hivel=127
lokey=e5
lovel=1
lpc=/LspQMMQeMAu2EtAgPGNv56TIj80w9++PPiGP6L1Mr+MNv4+qCRuvIIaqj6yczC+/+KfPpfXFb9vJZY/yWBYv4Gp1D7mqlM+fisXvnDeLLxB3fg+okBAv02oEj/ccCO+
lpc_rms=-24.67
pitch_keycenter=f5
sample=Violin2Solo_tenuto_quarter_FF_F5.opus
</region>

<region>
hikey=f6
hivel=127
lokey=e6
lovel=1
lpc=rKyyQN9VQr7HkVNAvG1RPxGwIkD1pA5ADFBYQNiGej/cMyxACPTNP1847D8JnOM/3AsMQMM1wz8fTBJAQkOrP/D7IEDPzyfAhPPuPn1H/L4kzvc+s03fvb0ONL/PTWe/
lpc_rms=-16.84
pitch_keycenter=f6
sample=Violin2Solo_tenuto_quarter_FF_F6.opus
</region>

<region>
hivel=127
key=g3
lovel=1
lpc=fXuPQNN9HcF81T1BEvoEwTI/fUCvIQPABcogQKyADMDChrk/2/IFv2OG6D6GKj4+kN1Ev1qkdT9Qkri6xR4jvwYYej9Xdu++qOjjPgP4oL6IKZU+RW1Jvvk5VT5Ww5G+
lpc_rms=-24.04
sample=Violin2Solo_tenuto_quarter_FF_G3.opus
</region>

<region>
hikey=g4
hivel=127
lokey=f#4
lovel=1
lpc=rfd9QLjR2sBL7dpAUiaGwDa9MECDjvm/34DPP2Lyob84MYg/HJwev7ec+D6ujOy+aQDZPn15XL8RbJ4/zXKzv0/mvz+ktk2/Ca4hP7Desr5AGmI/bEEOv5BPdT6IC5u9
lpc_rms=-26.19
pitch_keycenter=g4
sample=Violin2Solo_tenuto_quarter_FF_G4.opus
</region>

<region>
hikey=g5
hivel=127
lokey=f#5
lovel=1
lpc=u70DQNcyD8AjXxNAF33Hvx0YxT9TgG+/QKiXPyHRer8ezVk//jaFvkgnBD7C7O49LuTrPv9Xpb3qGeU9c9/XPcXVdL05hN8+gY77Padolz6LI4O+ZfUYP6Pm3L7N58I+
lpc_rms=-19.43
pitch_keycenter=g5
sample=Violin2Solo_tenuto_quarter_FF_G5.opus
</region>

<region>
hikey=g6
hivel=127
lokey=f#6
lovel=1
lpc=gp/VQOWuaL6sIG1AJlz8Pxuvg0D6HwdAilBkQPFRGkBpkGpAFoclQIp1W0Aq0wFAMxCBQNiUAEBBKY5A4bkjwOb8jz+z63o/SAwxvpu8PL7qxmE+jcE5PoN3r7xaQQ49
lpc_rms=-18.26
pitch_keycenter=g6
sample=Violin2Solo_tenuto_quarter_FF_G6.opus
</region>
</group>